<?xml version="1.0" encoding="UTF-8"?>
<svg width="32" height="32" viewBox="0 0 32 32" fill="none" xmlns="http://www.w3.org/2000/svg">
  <rect width="32" height="32" rx="16" fill="#FFD23F"/>
  <path d="M16 7C12.7 7 10 9.7 10 13C10 15.4 11.2 17.5 13 18.6V21C13 21.6 13.4 22 14 22H18C18.6 22 19 21.6 19 21V18.6C20.8 17.5 22 15.4 22 13C22 9.7 19.3 7 16 7ZM17.5 17.5L17 17.8V20H15V17.8L14.5 17.5C13 16.7 12 14.9 12 13C12 10.8 13.8 9 16 9C18.2 9 20 10.8 20 13C20 14.9 19 16.7 17.5 17.5ZM15 23H17V24C17 24.6 16.6 25 16 25C15.4 25 15 24.6 15 24V23Z" fill="#2F2F2F"/>
</svg>